<svg width="377" height="46" viewBox="0 0 377 46" fill="none" xmlns="http://www.w3.org/2000/svg">
<path d="M63.945 1.84999H68.73V19.505H84.075V1.84999H88.86V42H84.075V24.345H68.73V42H63.945V1.84999Z" fill="white"/>
<path d="M107.997 13.84C109.977 13.84 111.847 14.225 113.607 14.995C115.367 15.7283 116.889 16.755 118.172 18.075C119.492 19.3583 120.519 20.88 121.252 22.64C122.022 24.3633 122.407 26.215 122.407 28.195V41.945H117.622V38.865C116.339 40.0017 114.872 40.9 113.222 41.56C111.609 42.1833 109.867 42.495 107.997 42.495C106.017 42.495 104.165 42.1283 102.442 41.395C100.719 40.625 99.197 39.5983 97.877 38.315C96.5937 37.0317 95.567 35.5283 94.797 33.805C94.0637 32.045 93.697 30.175 93.697 28.195C93.697 26.215 94.0637 24.3633 94.797 22.64C95.567 20.88 96.5937 19.3583 97.877 18.075C99.197 16.755 100.719 15.7283 102.442 14.995C104.165 14.225 106.017 13.84 107.997 13.84ZM107.997 18.57C106.677 18.57 105.43 18.8267 104.257 19.34C103.084 19.8167 102.057 20.495 101.177 21.375C100.334 22.255 99.6553 23.2817 99.142 24.455C98.6287 25.6283 98.372 26.875 98.372 28.195C98.372 29.515 98.6287 30.7617 99.142 31.935C99.6553 33.1083 100.334 34.135 101.177 35.015C102.057 35.8583 103.084 36.5367 104.257 37.05C105.43 37.5633 106.677 37.82 107.997 37.82C109.354 37.82 110.619 37.5633 111.792 37.05C112.965 36.5367 113.974 35.8583 114.817 35.015C115.697 34.135 116.375 33.1083 116.852 31.935C117.365 30.7617 117.622 29.515 117.622 28.195C117.622 26.875 117.365 25.6283 116.852 24.455C116.375 23.2817 115.697 22.255 114.817 21.375C113.974 20.495 112.965 19.8167 111.792 19.34C110.619 18.8267 109.354 18.57 107.997 18.57Z" fill="white"/>
<path d="M142.111 42.385C140.131 42.385 138.28 42.0183 136.556 41.285C134.833 40.515 133.311 39.4883 131.991 38.205C130.708 36.9217 129.681 35.4183 128.911 33.695C128.178 31.935 127.811 30.065 127.811 28.085C127.811 26.105 128.178 24.2533 128.911 22.53C129.681 20.77 130.708 19.2483 131.991 17.965C133.311 16.645 134.833 15.6183 136.556 14.885C138.28 14.115 140.131 13.73 142.111 13.73C143.651 13.73 145.155 14.0967 146.621 14.83C148.088 15.5267 149.426 16.48 150.636 17.69L147.336 20.99C146.53 20.22 145.686 19.615 144.806 19.175C143.926 18.6983 143.028 18.46 142.111 18.46C140.791 18.46 139.545 18.7167 138.371 19.23C137.198 19.7067 136.171 20.385 135.291 21.265C134.448 22.145 133.77 23.1717 133.256 24.345C132.743 25.5183 132.486 26.765 132.486 28.085C132.486 29.405 132.743 30.6517 133.256 31.825C133.77 32.9983 134.448 34.025 135.291 34.905C136.171 35.7483 137.198 36.4267 138.371 36.94C139.545 37.4533 140.791 37.71 142.111 37.71C143.028 37.71 143.926 37.49 144.806 37.05C145.686 36.61 146.53 35.9867 147.336 35.18L150.636 38.48C149.426 39.69 148.088 40.6433 146.621 41.34C145.155 42.0367 143.651 42.385 142.111 42.385Z" fill="white"/>
<path d="M154.502 1.73999H159.177V25.83L170.507 14.5H177.107L163.357 28.25L177.107 42H170.507L159.177 30.67V42H154.502V1.73999Z" fill="white"/>
<path d="M214.263 36.0645C212.465 38.5376 210.385 40.3118 208.023 41.3871C205.661 42.4624 203.105 43 200.355 43C197.5 43 194.873 42.5161 192.476 41.5484C190.114 40.5448 188.086 39.1649 186.394 37.4086C184.702 35.6165 183.38 33.5018 182.428 31.0645C181.476 28.5914 181 25.9032 181 23C181 20.0968 181.476 17.4265 182.428 14.9892C183.38 12.552 184.702 10.4552 186.394 8.69892C188.086 6.90681 190.114 5.50896 192.476 4.50538C194.873 3.50179 197.5 3 200.355 3C202.894 3 205.256 3.46595 207.442 4.39785C209.663 5.29391 211.602 6.8172 213.259 8.96774L210.403 11.3871C209.24 9.59498 207.741 8.28674 205.908 7.46237C204.11 6.63799 202.259 6.22581 200.355 6.22581C197.923 6.22581 195.719 6.65591 193.745 7.51613C191.806 8.37634 190.149 9.55914 188.774 11.0645C187.399 12.5699 186.341 14.3441 185.601 16.3871C184.86 18.4301 184.49 20.6344 184.49 23C184.49 25.3656 184.86 27.5699 185.601 29.6129C186.341 31.6559 187.399 33.4301 188.774 34.9355C190.149 36.4409 191.806 37.6237 193.745 38.4839C195.719 39.3441 197.923 39.7742 200.355 39.7742C201.307 39.7742 202.294 39.6667 203.317 39.4516C204.339 39.2007 205.326 38.8423 206.278 38.3763C207.265 37.8746 208.2 37.2652 209.081 36.5484C209.962 35.7957 210.738 34.8996 211.408 33.8602L214.263 36.0645Z" fill="white"/>
<path d="M218.394 29.6129C218.394 27.7133 218.711 25.9749 219.346 24.3978C219.98 22.7849 220.862 21.405 221.99 20.2581C223.118 19.0753 224.475 18.1613 226.062 17.5161C227.648 16.871 229.376 16.5484 231.244 16.5484C233.113 16.5484 234.823 16.871 236.374 17.5161C237.96 18.1613 239.318 19.0753 240.446 20.2581C241.609 21.405 242.508 22.7849 243.143 24.3978C243.778 25.9749 244.095 27.7133 244.095 29.6129C244.095 31.5125 243.778 33.2688 243.143 34.8817C242.508 36.4588 241.609 37.8387 240.446 39.0215C239.318 40.1685 237.96 41.0645 236.374 41.7097C234.823 42.3548 233.113 42.6774 231.244 42.6774C229.376 42.6774 227.648 42.3548 226.062 41.7097C224.475 41.0645 223.118 40.1685 221.99 39.0215C220.862 37.8387 219.98 36.4588 219.346 34.8817C218.711 33.2688 218.394 31.5125 218.394 29.6129ZM221.567 29.6129C221.567 31.0108 221.778 32.3369 222.201 33.5914C222.66 34.81 223.312 35.8853 224.158 36.8172C225.004 37.7133 226.027 38.4301 227.225 38.9677C228.424 39.5054 229.764 39.7742 231.244 39.7742C232.725 39.7742 234.065 39.5054 235.263 38.9677C236.462 38.4301 237.485 37.7133 238.331 36.8172C239.177 35.8853 239.811 34.81 240.234 33.5914C240.693 32.3369 240.922 31.0108 240.922 29.6129C240.922 28.2151 240.693 26.9068 240.234 25.6882C239.811 24.4337 239.177 23.3584 238.331 22.4624C237.485 21.5305 236.462 20.7957 235.263 20.2581C234.065 19.7204 232.725 19.4516 231.244 19.4516C229.764 19.4516 228.424 19.7204 227.225 20.2581C226.027 20.7957 225.004 21.5305 224.158 22.4624C223.312 23.3584 222.66 24.4337 222.201 25.6882C221.778 26.9068 221.567 28.2151 221.567 29.6129Z" fill="white"/>
<path d="M251.168 24.1828C251.168 23.7168 251.15 23.1613 251.115 22.5161C251.08 21.8351 251.045 21.1541 251.009 20.4731C251.009 19.7921 250.992 19.1649 250.956 18.5914C250.921 17.9821 250.904 17.5161 250.904 17.1935H254.077C254.112 18.1254 254.129 19.0215 254.129 19.8817C254.165 20.7419 254.218 21.2975 254.288 21.5484H254.447C255.081 20.1864 256.139 19.0215 257.62 18.0538C259.1 17.0502 260.828 16.5484 262.802 16.5484C264.706 16.5484 266.257 16.853 267.456 17.4624C268.655 18.0717 269.589 18.8781 270.259 19.8817C270.964 20.8495 271.44 21.9785 271.687 23.2688C271.969 24.5591 272.11 25.8853 272.11 27.2473V42.0323H268.937V27.4086C268.937 26.405 268.849 25.4373 268.672 24.5054C268.496 23.5376 268.179 22.6774 267.72 21.9247C267.297 21.172 266.68 20.5806 265.869 20.1505C265.094 19.6846 264.071 19.4516 262.802 19.4516C261.639 19.4516 260.528 19.6667 259.471 20.0968C258.448 20.491 257.549 21.1183 256.774 21.9785C256.033 22.8029 255.434 23.8602 254.976 25.1505C254.553 26.405 254.341 27.8925 254.341 29.6129V42.0323H251.168V24.1828Z" fill="white"/>
<path d="M280.553 24.1828C280.553 23.7168 280.536 23.1613 280.5 22.5161C280.465 21.8351 280.43 21.1541 280.395 20.4731C280.395 19.7921 280.377 19.1649 280.342 18.5914C280.306 17.9821 280.289 17.5161 280.289 17.1935H283.462C283.497 18.1254 283.515 19.0215 283.515 19.8817C283.55 20.7419 283.603 21.2975 283.673 21.5484H283.832C284.467 20.1864 285.524 19.0215 287.005 18.0538C288.486 17.0502 290.213 16.5484 292.188 16.5484C294.091 16.5484 295.643 16.853 296.841 17.4624C298.04 18.0717 298.974 18.8781 299.644 19.8817C300.349 20.8495 300.825 21.9785 301.072 23.2688C301.354 24.5591 301.495 25.8853 301.495 27.2473V42.0323H298.322V27.4086C298.322 26.405 298.234 25.4373 298.058 24.5054C297.881 23.5376 297.564 22.6774 297.106 21.9247C296.683 21.172 296.066 20.5806 295.255 20.1505C294.479 19.6846 293.457 19.4516 292.188 19.4516C291.024 19.4516 289.914 19.6667 288.856 20.0968C287.833 20.491 286.934 21.1183 286.159 21.9785C285.418 22.8029 284.819 23.8602 284.361 25.1505C283.938 26.405 283.726 27.8925 283.726 29.6129V42.0323H280.553V24.1828Z" fill="white"/>
<path d="M331.515 37.3548C330.281 39.2545 328.747 40.6165 326.914 41.4409C325.116 42.2652 323.124 42.6774 320.938 42.6774C319.07 42.6774 317.377 42.3548 315.861 41.7097C314.345 41.0645 313.041 40.1685 311.948 39.0215C310.855 37.8387 310.009 36.4588 309.41 34.8817C308.846 33.2688 308.563 31.4946 308.563 29.5591C308.563 27.6953 308.863 25.9749 309.463 24.3978C310.062 22.8208 310.908 21.4588 312.001 20.3118C313.094 19.129 314.381 18.2151 315.861 17.5699C317.342 16.8889 318.981 16.5484 320.779 16.5484C322.648 16.5484 324.287 16.8889 325.698 17.5699C327.143 18.2151 328.342 19.0932 329.294 20.2043C330.281 21.2796 331.021 22.5161 331.515 23.914C332.008 25.3118 332.255 26.7276 332.255 28.1613V30.4194H311.736C311.736 31.1004 311.86 31.9785 312.107 33.0538C312.389 34.0932 312.882 35.1147 313.587 36.1183C314.293 37.1219 315.227 37.9821 316.39 38.6989C317.589 39.4158 319.122 39.7742 320.991 39.7742C322.613 39.7742 324.182 39.3799 325.698 38.5914C327.214 37.8029 328.377 36.7276 329.188 35.3656L331.515 37.3548ZM329.082 27.5161C329.082 26.405 328.853 25.3656 328.395 24.3978C327.972 23.4301 327.372 22.5878 326.597 21.871C325.856 21.1183 324.957 20.5269 323.9 20.0968C322.877 19.6667 321.784 19.4516 320.621 19.4516C318.893 19.4516 317.448 19.81 316.284 20.5269C315.156 21.2437 314.257 22.0681 313.587 23C312.918 23.9319 312.442 24.8459 312.16 25.7419C311.878 26.6021 311.736 27.1935 311.736 27.5161H329.082Z" fill="white"/>
<path d="M359.789 38.3763C358.591 39.8459 357.233 40.9391 355.717 41.6559C354.201 42.3369 352.562 42.6774 350.799 42.6774C348.931 42.6774 347.203 42.3548 345.617 41.7097C344.03 41.0645 342.673 40.1685 341.545 39.0215C340.417 37.8387 339.535 36.4588 338.901 34.8817C338.266 33.2688 337.949 31.5125 337.949 29.6129C337.949 27.7133 338.266 25.9749 338.901 24.3978C339.535 22.7849 340.417 21.405 341.545 20.2581C342.673 19.0753 344.03 18.1613 345.617 17.5161C347.203 16.871 348.931 16.5484 350.799 16.5484C352.597 16.5484 354.254 16.9247 355.77 17.6774C357.322 18.4301 358.697 19.4875 359.895 20.8495L357.357 22.7849C356.44 21.7455 355.435 20.9391 354.342 20.3656C353.25 19.7563 352.069 19.4516 350.799 19.4516C349.319 19.4516 347.979 19.7204 346.78 20.2581C345.582 20.7957 344.559 21.5305 343.713 22.4624C342.867 23.3584 342.215 24.4337 341.756 25.6882C341.333 26.9068 341.122 28.2151 341.122 29.6129C341.122 31.0108 341.333 32.3369 341.756 33.5914C342.215 34.81 342.867 35.8853 343.713 36.8172C344.559 37.7133 345.582 38.4301 346.78 38.9677C347.979 39.5054 349.319 39.7742 350.799 39.7742C352.139 39.7742 353.355 39.4695 354.448 38.8602C355.576 38.215 356.546 37.3728 357.357 36.3333L359.789 38.3763Z" fill="white"/>
<path d="M376.736 20.0968H369.755V36.2796C369.755 37.3907 370.055 38.2509 370.654 38.8602C371.253 39.4695 372.082 39.7742 373.14 39.7742C373.739 39.7742 374.338 39.7025 374.938 39.5591C375.572 39.3799 376.171 39.1649 376.736 38.914L377 41.8172C376.401 42.0323 375.713 42.2294 374.938 42.4086C374.162 42.5878 373.474 42.6774 372.875 42.6774C371.747 42.6774 370.777 42.4982 369.967 42.1398C369.156 41.8172 368.503 41.3692 368.01 40.7957C367.516 40.2222 367.146 39.5591 366.899 38.8064C366.688 38.0179 366.582 37.1756 366.582 36.2796V20.0968H361.294V17.1935H366.582V10.043H369.755V17.1935H376.736V20.0968Z" fill="white"/>
<path d="M17.567 15.027L14.708 12.325C15.041 11.72 15.247 11.035 15.247 10.296C15.247 7.954 13.35 6.057 11.007 6.057C8.664 6.057 6.764 7.953 6.764 10.296C6.764 12.639 8.664 14.537 11.007 14.537C11.833 14.537 12.597 14.291 13.249 13.883L16.104 16.582C16.536 16.011 17.023 15.488 17.567 15.027Z" fill="white"/>
<path d="M29.66 14.689L33.459 8.296C33.833 8.403 34.221 8.48 34.628 8.48C36.975 8.48 38.872 6.582 38.872 4.239C38.872 1.897 36.975 0 34.628 0C32.285 0 30.389 1.896 30.389 4.239C30.389 5.402 30.858 6.453 31.616 7.22L27.829 13.595C28.48 13.89 29.094 14.258 29.66 14.689Z" fill="white"/>
<path d="M42.762 20.041C40.938 20.041 39.393 21.2 38.794 22.816L33.516 22.295C33.516 22.335 33.522 22.373 33.522 22.412C33.522 23.1 33.446 23.772 33.309 24.421L38.585 24.942C38.904 26.966 40.647 28.518 42.762 28.518C45.104 28.518 47 26.622 47 24.28C47 21.939 45.104 20.041 42.762 20.041Z" fill="white"/>
<path d="M28.197 36.713L27.017 31.557C26.351 31.789 25.658 31.955 24.935 32.038L26.117 37.195C24.762 37.904 23.827 39.305 23.827 40.941C23.827 43.283 25.723 45.178 28.07 45.178C30.412 45.178 32.308 43.282 32.308 40.941C32.311 38.642 30.479 36.781 28.197 36.713Z" fill="white"/>
<path d="M14.357 24.459L7.787 26.66C7.029 25.502 5.724 24.734 4.239 24.734C1.896 24.734 0 26.631 0 28.973C0 31.318 1.896 33.215 4.239 33.215C6.58 33.215 8.481 31.318 8.481 28.973C8.481 28.875 8.46 28.785 8.452 28.689L15.043 26.482C14.746 25.841 14.51 25.166 14.357 24.459Z" fill="white"/>
<path d="M23.83 29.683C27.8457 29.683 31.101 26.4277 31.101 22.412C31.101 18.3963 27.8457 15.141 23.83 15.141C19.8143 15.141 16.559 18.3963 16.559 22.412C16.559 26.4277 19.8143 29.683 23.83 29.683Z" fill="white"/>
</svg>
