<svg width="261" height="32" viewBox="0 0 261 32" fill="none" xmlns="http://www.w3.org/2000/svg">
<path d="M44.1063 1.27607H47.4068V13.4537H57.9911V1.27607H61.2916V28.9697H57.9911V16.7921H47.4068V28.9697H44.1063V1.27607Z" fill="#C802FE"/>
<path d="M74.4914 9.54623C75.8571 9.54623 77.147 9.81179 78.3609 10.3429C79.5749 10.8487 80.6245 11.5569 81.5097 12.4673C82.4201 13.3525 83.1283 14.4021 83.6341 15.6161C84.1652 16.8048 84.4308 18.0819 84.4308 19.4477V28.9318H81.1303V26.8074C80.2451 27.5914 79.2335 28.211 78.0954 28.6662C76.9826 29.0962 75.7812 29.3112 74.4914 29.3112C73.1257 29.3112 71.8485 29.0583 70.6598 28.5524C69.4711 28.0213 68.4216 27.3132 67.5111 26.428C66.6259 25.5428 65.9177 24.5059 65.3866 23.3172C64.8808 22.1032 64.6279 20.8134 64.6279 19.4477C64.6279 18.0819 64.8808 16.8048 65.3866 15.6161C65.9177 14.4021 66.6259 13.3525 67.5111 12.4673C68.4216 11.5569 69.4711 10.8487 70.6598 10.3429C71.8485 9.81179 73.1257 9.54623 74.4914 9.54623ZM74.4914 12.8088C73.5809 12.8088 72.721 12.9858 71.9117 13.3399C71.1024 13.6687 70.3943 14.1366 69.7873 14.7435C69.2056 15.3505 68.7377 16.0587 68.3836 16.868C68.0295 17.6773 67.8525 18.5372 67.8525 19.4477C67.8525 20.3581 68.0295 21.218 68.3836 22.0273C68.7377 22.8367 69.2056 23.5448 69.7873 24.1518C70.3943 24.7335 71.1024 25.2014 71.9117 25.5554C72.721 25.9095 73.5809 26.0866 74.4914 26.0866C75.4272 26.0866 76.2997 25.9095 77.109 25.5554C77.9183 25.2014 78.6138 24.7335 79.1955 24.1518C79.8025 23.5448 80.2704 22.8367 80.5992 22.0273C80.9533 21.218 81.1303 20.3581 81.1303 19.4477C81.1303 18.5372 80.9533 17.6773 80.5992 16.868C80.2704 16.0587 79.8025 15.3505 79.1955 14.7435C78.6138 14.1366 77.9183 13.6687 77.109 13.3399C76.2997 12.9858 75.4272 12.8088 74.4914 12.8088Z" fill="#C802FE"/>
<path d="M98.0218 29.2353C96.6561 29.2353 95.3789 28.9824 94.1902 28.4766C93.0016 27.9454 91.952 27.2373 91.0415 26.3521C90.1563 25.4669 89.4482 24.43 88.9171 23.2413C88.4112 22.0273 88.1583 20.7375 88.1583 19.3718C88.1583 18.0061 88.4112 16.7289 88.9171 15.5402C89.4482 14.3262 90.1563 13.2767 91.0415 12.3915C91.952 11.481 93.0016 10.7728 94.1902 10.267C95.3789 9.73591 96.6561 9.47036 98.0218 9.47036C99.0841 9.47036 100.121 9.72327 101.133 10.2291C102.144 10.7096 103.067 11.3672 103.902 12.2018L101.626 14.478C101.069 13.9469 100.488 13.5296 99.8807 13.2261C99.2737 12.8973 98.6541 12.7329 98.0218 12.7329C97.1114 12.7329 96.2515 12.9099 95.4421 13.264C94.6328 13.5928 93.9247 14.0607 93.3177 14.6677C92.736 15.2746 92.2681 15.9828 91.914 16.7921C91.56 17.6014 91.3829 18.4613 91.3829 19.3718C91.3829 20.2823 91.56 21.1422 91.914 21.9515C92.2681 22.7608 92.736 23.4689 93.3177 24.0759C93.9247 24.6576 94.6328 25.1255 95.4421 25.4796C96.2515 25.8336 97.1114 26.0107 98.0218 26.0107C98.6541 26.0107 99.2737 25.8589 99.8807 25.5554C100.488 25.252 101.069 24.822 101.626 24.2656L103.902 26.5418C103.067 27.3764 102.144 28.034 101.133 28.5145C100.121 28.995 99.0841 29.2353 98.0218 29.2353Z" fill="#C802FE"/>
<path d="M106.568 1.2002H109.793V17.8164L117.608 10.0015H122.16L112.676 19.4856L122.16 28.9697H117.608L109.793 21.1548V28.9697H106.568V1.2002Z" fill="#C802FE"/>
<path d="M147.789 24.8756C146.549 26.5815 145.114 27.8052 143.485 28.5469C141.856 29.2886 140.093 29.6594 138.196 29.6594C136.226 29.6594 134.415 29.3257 132.761 28.6582C131.132 27.9659 129.733 27.0141 128.566 25.8027C127.399 24.5666 126.487 23.108 125.83 21.4269C125.174 19.721 124.846 17.8668 124.846 15.8643C124.846 13.8618 125.174 12.02 125.83 10.3389C126.487 8.65773 127.399 7.21147 128.566 6.00008C129.733 4.76395 131.132 3.79978 132.761 3.10755C134.415 2.41533 136.226 2.06921 138.196 2.06921C139.947 2.06921 141.576 2.3906 143.084 3.03339C144.616 3.65145 145.953 4.70215 147.096 6.18549L145.126 7.85425C144.324 6.61813 143.29 5.71577 142.026 5.14715C140.786 4.57854 139.509 4.29423 138.196 4.29423C136.518 4.29423 134.998 4.5909 133.636 5.18424C132.299 5.77757 131.156 6.59341 130.208 7.63175C129.259 8.67009 128.53 9.89385 128.019 11.303C127.508 12.7122 127.253 14.2326 127.253 15.8643C127.253 17.496 127.508 19.0164 128.019 20.4256C128.53 21.8348 129.259 23.0585 130.208 24.0969C131.156 25.1352 132.299 25.951 133.636 26.5444C134.998 27.1377 136.518 27.4344 138.196 27.4344C138.853 27.4344 139.533 27.3602 140.239 27.2119C140.944 27.0388 141.625 26.7916 142.281 26.4702C142.962 26.1241 143.607 25.7038 144.215 25.2094C144.822 24.6902 145.357 24.0721 145.819 23.3552L147.789 24.8756Z" fill="#C802FE"/>
<path d="M150.638 20.4256C150.638 19.1153 150.857 17.9163 151.295 16.8285C151.732 15.716 152.34 14.7642 153.118 13.973C153.897 13.1572 154.833 12.5268 155.927 12.0818C157.021 11.6368 158.213 11.4143 159.502 11.4143C160.791 11.4143 161.97 11.6368 163.04 12.0818C164.134 12.5268 165.071 13.1572 165.849 13.973C166.651 14.7642 167.271 15.716 167.709 16.8285C168.147 17.9163 168.366 19.1153 168.366 20.4256C168.366 21.7359 168.147 22.9473 167.709 24.0598C167.271 25.1476 166.651 26.0994 165.849 26.9152C165.071 27.7063 164.134 28.3244 163.04 28.7694C161.97 29.2144 160.791 29.4369 159.502 29.4369C158.213 29.4369 157.021 29.2144 155.927 28.7694C154.833 28.3244 153.897 27.7063 153.118 26.9152C152.34 26.0994 151.732 25.1476 151.295 24.0598C150.857 22.9473 150.638 21.7359 150.638 20.4256ZM152.827 20.4256C152.827 21.3898 152.973 22.3045 153.264 23.1698C153.581 24.0103 154.03 24.752 154.614 25.3948C155.198 26.0129 155.903 26.5073 156.73 26.8781C157.556 27.249 158.48 27.4344 159.502 27.4344C160.523 27.4344 161.447 27.249 162.274 26.8781C163.101 26.5073 163.806 26.0129 164.39 25.3948C164.973 24.752 165.411 24.0103 165.703 23.1698C166.019 22.3045 166.177 21.3898 166.177 20.4256C166.177 19.4614 166.019 18.5591 165.703 17.7185C165.411 16.8532 164.973 16.1115 164.39 15.4935C163.806 14.8507 163.101 14.3439 162.274 13.973C161.447 13.6022 160.523 13.4168 159.502 13.4168C158.48 13.4168 157.556 13.6022 156.73 13.973C155.903 14.3439 155.198 14.8507 154.614 15.4935C154.03 16.1115 153.581 16.8532 153.264 17.7185C152.973 18.5591 152.827 19.4614 152.827 20.4256Z" fill="#C802FE"/>
<path d="M173.244 16.6801C173.244 16.3588 173.232 15.9756 173.208 15.5306C173.184 15.0608 173.159 14.5911 173.135 14.1214C173.135 13.6517 173.123 13.219 173.098 12.8235C173.074 12.4032 173.062 12.0818 173.062 11.8593H175.251C175.275 12.5021 175.287 13.1201 175.287 13.7135C175.311 14.3068 175.348 14.69 175.396 14.8631H175.506C175.944 13.9236 176.673 13.1201 177.694 12.4526C178.716 11.7604 179.907 11.4143 181.269 11.4143C182.582 11.4143 183.652 11.6244 184.479 12.0447C185.306 12.465 185.95 13.0212 186.412 13.7135C186.899 14.381 187.227 15.1597 187.397 16.0497C187.592 16.9397 187.689 17.8545 187.689 18.7939V28.9919H185.5V18.9052C185.5 18.2129 185.44 17.5454 185.318 16.9027C185.196 16.2351 184.978 15.6418 184.661 15.1226C184.37 14.6035 183.944 14.1956 183.385 13.8989C182.85 13.5775 182.145 13.4168 181.269 13.4168C180.467 13.4168 179.701 13.5651 178.971 13.8618C178.266 14.1337 177.646 14.5664 177.111 15.1597C176.6 15.7283 176.187 16.4576 175.871 17.3477C175.579 18.2129 175.433 19.2389 175.433 20.4256V28.9919H173.244V16.6801Z" fill="#C802FE"/>
<path d="M193.513 16.6801C193.513 16.3588 193.501 15.9756 193.476 15.5306C193.452 15.0608 193.428 14.5911 193.403 14.1214C193.403 13.6517 193.391 13.219 193.367 12.8235C193.343 12.4032 193.331 12.0818 193.331 11.8593H195.519C195.543 12.5021 195.556 13.1201 195.556 13.7135C195.58 14.3068 195.616 14.69 195.665 14.8631H195.774C196.212 13.9236 196.942 13.1201 197.963 12.4526C198.984 11.7604 200.176 11.4143 201.538 11.4143C202.851 11.4143 203.921 11.6244 204.748 12.0447C205.574 12.465 206.219 13.0212 206.681 13.7135C207.167 14.381 207.496 15.1597 207.666 16.0497C207.86 16.9397 207.958 17.8545 207.958 18.7939V28.9919H205.769V18.9052C205.769 18.2129 205.708 17.5454 205.587 16.9027C205.465 16.2351 205.246 15.6418 204.93 15.1226C204.638 14.6035 204.213 14.1956 203.653 13.8989C203.118 13.5775 202.413 13.4168 201.538 13.4168C200.735 13.4168 199.969 13.5651 199.24 13.8618C198.535 14.1337 197.914 14.5664 197.379 15.1597C196.869 15.7283 196.455 16.4576 196.139 17.3477C195.847 18.2129 195.701 19.2389 195.701 20.4256V28.9919H193.513V16.6801Z" fill="#C802FE"/>
<path d="M228.664 25.7656C227.813 27.0759 226.755 28.0154 225.49 28.584C224.25 29.1526 222.876 29.4369 221.369 29.4369C220.08 29.4369 218.913 29.2144 217.867 28.7694C216.821 28.3244 215.921 27.7063 215.168 26.9152C214.414 26.0994 213.83 25.1476 213.417 24.0598C213.028 22.9473 212.833 21.7235 212.833 20.3885C212.833 19.1029 213.04 17.9163 213.453 16.8285C213.867 15.7407 214.45 14.8012 215.204 14.0101C215.958 13.1943 216.846 12.5639 217.867 12.1189C218.888 11.6491 220.019 11.4143 221.259 11.4143C222.548 11.4143 223.679 11.6491 224.651 12.1189C225.649 12.5639 226.475 13.1696 227.132 13.936C227.813 14.6776 228.323 15.5306 228.664 16.4947C229.004 17.4589 229.175 18.4354 229.175 19.4243V20.9818H215.022C215.022 21.4516 215.107 22.0573 215.277 22.7989C215.472 23.5159 215.812 24.2205 216.298 24.9127C216.785 25.6049 217.429 26.1983 218.232 26.6927C219.058 27.1872 220.116 27.4344 221.405 27.4344C222.524 27.4344 223.606 27.1624 224.651 26.6186C225.697 26.0747 226.5 25.333 227.059 24.3935L228.664 25.7656ZM226.986 18.9793C226.986 18.2129 226.828 17.496 226.512 16.8285C226.22 16.161 225.807 15.58 225.272 15.0856C224.761 14.5664 224.141 14.1585 223.411 13.8618C222.706 13.5651 221.952 13.4168 221.15 13.4168C219.958 13.4168 218.961 13.664 218.159 14.1585C217.381 14.6529 216.76 15.2215 216.298 15.8643C215.836 16.5071 215.508 17.1375 215.314 17.7556C215.119 18.3489 215.022 18.7568 215.022 18.9793H226.986Z" fill="#C802FE"/>
<path d="M248.166 26.4702C247.34 27.4838 246.403 28.2379 245.358 28.7323C244.312 29.202 243.181 29.4369 241.966 29.4369C240.677 29.4369 239.485 29.2144 238.391 28.7694C237.297 28.3244 236.36 27.7063 235.582 26.9152C234.804 26.0994 234.196 25.1476 233.758 24.0598C233.321 22.9473 233.102 21.7359 233.102 20.4256C233.102 19.1153 233.321 17.9163 233.758 16.8285C234.196 15.716 234.804 14.7642 235.582 13.973C236.36 13.1572 237.297 12.5268 238.391 12.0818C239.485 11.6368 240.677 11.4143 241.966 11.4143C243.206 11.4143 244.349 11.6739 245.394 12.193C246.464 12.7122 247.413 13.4415 248.239 14.381L246.489 15.716C245.856 14.999 245.163 14.4428 244.409 14.0472C243.656 13.6269 242.841 13.4168 241.966 13.4168C240.944 13.4168 240.02 13.6022 239.193 13.973C238.367 14.3439 237.661 14.8507 237.078 15.4935C236.494 16.1115 236.044 16.8532 235.728 17.7185C235.436 18.5591 235.29 19.4614 235.29 20.4256C235.29 21.3898 235.436 22.3045 235.728 23.1698C236.044 24.0103 236.494 24.752 237.078 25.3948C237.661 26.0129 238.367 26.5073 239.193 26.8781C240.02 27.249 240.944 27.4344 241.966 27.4344C242.89 27.4344 243.729 27.2243 244.482 26.804C245.261 26.359 245.929 25.778 246.489 25.061L248.166 26.4702Z" fill="#C802FE"/>
<path d="M259.855 13.8618H255.04V25.024C255.04 25.7904 255.247 26.3837 255.66 26.804C256.074 27.2243 256.645 27.4344 257.375 27.4344C257.788 27.4344 258.202 27.3849 258.615 27.2861C259.053 27.1624 259.466 27.0141 259.855 26.8411L260.038 28.8436C259.624 28.9919 259.15 29.1279 258.615 29.2515C258.08 29.3751 257.606 29.4369 257.192 29.4369C256.414 29.4369 255.746 29.3133 255.186 29.0661C254.627 28.8436 254.177 28.5345 253.837 28.139C253.496 27.7434 253.241 27.2861 253.071 26.7669C252.925 26.223 252.852 25.642 252.852 25.024V13.8618H249.204V11.8593H252.852V6.92716H255.04V11.8593H259.855V13.8618Z" fill="#C802FE"/>
<path d="M12.1169 10.3649L10.1449 8.50123C10.3746 8.08393 10.5167 7.61145 10.5167 7.10172C10.5167 5.48631 9.20823 4.17785 7.59213 4.17785C5.97604 4.17785 4.6655 5.48562 4.6655 7.10172C4.6655 8.71781 5.97604 10.027 7.59213 10.027C8.16187 10.027 8.68884 9.85729 9.13856 9.57587L11.1078 11.4375C11.4058 11.0437 11.7417 10.6829 12.1169 10.3649Z" fill="#C802FE"/>
<path d="M20.4581 10.1318L23.0785 5.72221C23.3365 5.79601 23.6041 5.84912 23.8848 5.84912C25.5037 5.84912 26.8122 4.53997 26.8122 2.92387C26.8122 1.30847 25.5037 0 23.8848 0C22.2687 0 20.961 1.30778 20.961 2.92387C20.961 3.72606 21.2845 4.45099 21.8073 4.98003L19.1952 9.37722C19.6442 9.5807 20.0677 9.83453 20.4581 10.1318Z" fill="#C802FE"/>
<path d="M29.4953 13.8234C28.2372 13.8234 27.1715 14.6228 26.7584 15.7374L23.1178 15.3781C23.1178 15.4057 23.122 15.4319 23.122 15.4588C23.122 15.9333 23.0695 16.3969 22.975 16.8445L26.6142 17.2039C26.8342 18.5999 28.0365 19.6704 29.4953 19.6704C31.1107 19.6704 32.4185 18.3627 32.4185 16.7473C32.4185 15.1325 31.1107 13.8234 29.4953 13.8234Z" fill="#C802FE"/>
<path d="M19.449 25.323L18.6351 21.7666C18.1757 21.9266 17.6977 22.0411 17.199 22.0984L18.0143 25.6554C17.0797 26.1445 16.4348 27.1108 16.4348 28.2393C16.4348 29.8547 17.7426 31.1618 19.3614 31.1618C20.9768 31.1618 22.2846 29.854 22.2846 28.2393C22.2867 26.6535 21.023 25.3699 19.449 25.323Z" fill="#C802FE"/>
<path d="M9.90281 16.8707L5.37112 18.3889C4.84829 17.5901 3.94816 17.0604 2.92387 17.0604C1.30778 17.0604 0 18.3689 0 19.9843C0 21.6017 1.30778 22.9102 2.92387 22.9102C4.53859 22.9102 5.84981 21.6017 5.84981 19.9843C5.84981 19.9167 5.83533 19.8546 5.82981 19.7884L10.376 18.2661C10.1711 17.824 10.0083 17.3584 9.90281 16.8707Z" fill="#C802FE"/>
<path d="M16.4369 20.474C19.2067 20.474 21.4521 18.2286 21.4521 15.4588C21.4521 12.689 19.2067 10.4436 16.4369 10.4436C13.667 10.4436 11.4217 12.689 11.4217 15.4588C11.4217 18.2286 13.667 20.474 16.4369 20.474Z" fill="#C802FE"/>
</svg>
